<svg xmlns="http://www.w3.org/2000/svg" viewBox="0 0 754.18 263.11"><defs><style>.cls-1{fill:#a91b10;fill-rule:evenodd;}</style></defs><title>logo</title><g id="Слой_2" data-name="Слой 2"><g id="Слой_1-2" data-name="Слой 1"><polygon class="cls-1" points="51.04 181.95 27.32 94.68 27.32 181.95 0 181.95 0 64.5 48.13 64.5 64.64 126.75 81.14 64.5 129.27 64.5 129.27 181.95 101.95 181.95 101.95 94.68 78.23 181.95 51.04 181.95"/><path class="cls-1" d="M753.43,65.82V181.9H722V92.6h-26.2v32.19c-1.19,39.1-18.07,59.31-52,58.46l.34-28.22c17.4.65,23.15-12.71,23.3-29.8V65.82Z"/><path class="cls-1" d="M221.12,181.65l-5.54-16.47H184.92l-5.54,16.47H156.22L186.4,93h27.7l30.18,88.64Zm-29.81-35.46h17.88l-8.94-26.59Z"/><path class="cls-1" d="M270.91,115.5l52.27-.09h.12c40.2,0,36.72,42.62,0,42.8l-24.95.13v23.55H270.91V115.5Zm27.44,14h0V144.1l9.52.11c19.64.93,20-16.19,0-14.69h-9.52Z"/><polygon class="cls-1" points="476.12 115.25 506.08 115.25 506.08 181.72 376.25 181.72 376.25 115.25 406.21 115.25 406.21 168.22 426 168.22 426 115.25 455.96 115.25 455.96 168.22 476.12 168.22 476.12 115.25"/><path class="cls-1" d="M596,182l-5.54-16.47H559.85L554.31,182H531.15l30.18-88.64H589L619.21,182Zm-29.81-35.46h17.88l-8.94-26.59Z"/><polygon class="cls-1" points="376.72 0 387.1 30.46 420.9 30.4 393.52 49.16 404.02 79.59 376.72 60.72 349.4 79.59 359.91 49.16 332.52 30.4 366.33 30.46 376.72 0"/><path d="M0,253.66l14.09-41.78h6.85L35,253.66H29.15L25.37,242H9.4L5.61,253.66Zm23.82-16.42-6.45-19.7-6.43,19.7Z"/><path d="M121.91,240.83a12.26,12.26,0,0,1-1.18,5.5,11.11,11.11,0,0,1-3.17,3.93,14.67,14.67,0,0,1-5.05,2.62,25.89,25.89,0,0,1-7,.77h-12V211.87h11.08a55.66,55.66,0,0,1,6.69.29,12.49,12.49,0,0,1,4.28,1.39,7.72,7.72,0,0,1,3.28,3.16,9.63,9.63,0,0,1,1,4.59,9.27,9.27,0,0,1-1.56,5.28,10.52,10.52,0,0,1-4.31,3.65v.22a10.44,10.44,0,0,1,5.78,3.69A10.7,10.7,0,0,1,121.91,240.83Zm-7.74-18.74a6.28,6.28,0,0,0-.51-2.62,3.83,3.83,0,0,0-1.63-1.75,7.63,7.63,0,0,0-3-.93q-1.66-.17-4.57-.17H99.13v12.23h6.31a20,20,0,0,0,3.84-.27,7.88,7.88,0,0,0,2.55-1.11,4.51,4.51,0,0,0,1.8-2.13A8.72,8.72,0,0,0,114.17,222.09Zm2,19a9.69,9.69,0,0,0-.67-3.89,5.63,5.63,0,0,0-2.72-2.6,8.29,8.29,0,0,0-2.88-.9,37.78,37.78,0,0,0-4.42-.2H99.13v15.43h4.52a38.32,38.32,0,0,0,5.75-.34,9,9,0,0,0,3.7-1.43,7.1,7.1,0,0,0,2.3-2.48A7.75,7.75,0,0,0,116.13,241.06Z"/><path d="M191.8,253.66V216.81h-14v-4.94h33.62v4.94h-14v36.84Z"/><path d="M299.74,216.67a19.4,19.4,0,0,1,3.7,6.82,30.1,30.1,0,0,1,1.32,9.29,30.47,30.47,0,0,1-1.29,9.18,18.83,18.83,0,0,1-3.73,6.87,15.75,15.75,0,0,1-6,4.31,19.71,19.71,0,0,1-7.51,1.39,19.48,19.48,0,0,1-7.63-1.43,15.62,15.62,0,0,1-5.84-4.27,19.08,19.08,0,0,1-3.7-6.85,30.38,30.38,0,0,1-1.29-9.2,29.79,29.79,0,0,1,1.3-9.26,20.27,20.27,0,0,1,3.72-6.85,15.76,15.76,0,0,1,5.82-4.22,19.34,19.34,0,0,1,7.62-1.45,19.11,19.11,0,0,1,7.69,1.49A16.08,16.08,0,0,1,299.74,216.67ZM299,232.78a27.29,27.29,0,0,0-.9-7.35,15.38,15.38,0,0,0-2.53-5.3,10.58,10.58,0,0,0-4-3.24,13.58,13.58,0,0,0-10.55,0,11,11,0,0,0-4,3.27,15.18,15.18,0,0,0-2.54,5.36,27.65,27.65,0,0,0-.88,7.3q0,8.22,3.45,12.59a12,12,0,0,0,18.51,0Q299,241,299,232.78Z"/><path d="M399.45,263.11h-5.28v-9.46H365.44V211.87H371v36.9h18.94v-36.9h5.56v36.9h4Z"/><path d="M459.41,253.66V211.87h26.12v4.94H465v11.45h19.17v4.94H465v15.52h20.57v4.94Z"/><path d="M576.58,253.66H571V233.2H551.8v20.46h-5.56V211.87h5.56v16.39H571V211.87h5.56Z"/><path d="M649.41,253.66V216.81h-14v-4.94H669v4.94H655v36.84Z"/><path d="M754.18,224.47a13.77,13.77,0,0,1-1,5.15,12.12,12.12,0,0,1-2.68,4.14,14.28,14.28,0,0,1-5.08,3.23,21.25,21.25,0,0,1-7.38,1.09h-4.71v15.57H727.8V211.87H738.3a27.84,27.84,0,0,1,6.31.62,13.49,13.49,0,0,1,4.6,2,11.41,11.41,0,0,1,3.65,4.05A12.39,12.39,0,0,1,754.18,224.47Zm-5.78.14a8.85,8.85,0,0,0-.74-3.76,6.27,6.27,0,0,0-2.26-2.61,8.77,8.77,0,0,0-3.07-1.23,21.93,21.93,0,0,0-4.36-.36h-4.6v16.7h3.79a22,22,0,0,0,5.44-.55,7.34,7.34,0,0,0,3.45-2,7.94,7.94,0,0,0,1.8-2.75A9.84,9.84,0,0,0,748.4,224.61Z"/></g></g></svg>